<?xml version="1.0" encoding="UTF-8"?>
<svg id="Layer_1" xmlns="http://www.w3.org/2000/svg" version="1.1" viewBox="0 0 171.56 62.96">
  <!-- Generator: Adobe Illustrator 30.1.0, SVG Export Plug-In . SVG Version: 2.1.1 Build 136)  -->
  <defs>
    <style>
      .st0 {
        fill: #fff;
        opacity: .7;
      }
    </style>
  </defs>
  <g>
    <path class="st0" d="M158.56,1H13C6.4,1,1,4.82,1,9.48v24.3c0,4.67,5.4,8.48,12,8.48h100.96l12.33,18.36,5.36-18.36h26.9c6.6,0,12-3.82,12-8.48V9.48c0-4.67-5.4-8.48-12-8.48Z"/>
    <path d="M126.66,62.96l-13.23-19.69H13c-7.17,0-13-4.25-13-9.48V9.48C0,4.25,5.83,0,13,0h145.56c7.17,0,13,4.25,13,9.48v24.3c0,5.23-5.83,9.48-13,9.48h-26.15l-5.75,19.69ZM13,2c-5.96,0-11,3.43-11,7.48v24.3c0,4.06,5.04,7.48,11,7.48h101.5l11.44,17.03,4.97-17.03h27.65c5.96,0,11-3.43,11-7.48V9.48c0-4.06-5.04-7.48-11-7.48H13Z"/>
  </g>
  <g>
    <path d="M16.04,31.26c-.41-.04-.7-.19-.89-.46-.19-.27-.28-.55-.28-.85,0-.16.04-.35.12-.57l-.02.06v-12.56s-.08.02-.11.01c-.02,0-.06-.01-.11-.01-.33,0-.6-.11-.81-.34-.21-.23-.31-.51-.31-.85,0-.44.19-.86.57-1.26s.85-.74,1.39-1.03,1.11-.52,1.7-.69,1.08-.25,1.49-.25c.73,0,1.39.15,1.98.45.58.3,1.08.69,1.5,1.17.41.48.73,1.01.95,1.59s.33,1.14.33,1.68c0,.7-.16,1.4-.47,2.11-.31.71-.72,1.32-1.22,1.84.75.52,1.31,1.16,1.67,1.91.37.76.55,1.55.55,2.36,0,.54-.08,1.08-.25,1.62-.16.54-.39,1.04-.68,1.5-.29.46-.63.87-1.02,1.23-.39.36-.8.64-1.24.84-.55.22-1.13.37-1.74.45-.61.08-1.23.12-1.83.12h-.63c-.2,0-.41-.01-.63-.03h-.02ZM17.24,20.13c.22,0,.43,0,.63.01.2.01.41.03.63.04.2-.02.46-.09.77-.22.31-.13.61-.3.9-.52.29-.22.54-.49.74-.81.2-.32.3-.69.3-1.11s-.08-.78-.23-1.08-.36-.54-.61-.73c-.25-.19-.52-.33-.82-.43-.3-.1-.59-.15-.89-.15-.5,0-.98.1-1.43.3v4.7ZM20.99,23.81c-.34-.28-.71-.49-1.1-.64-.39-.15-.8-.25-1.24-.31-.22.04-.45.07-.68.1-.23.03-.48.04-.73.04v5.65c.34,0,.77-.02,1.29-.07.52-.05,1.01-.17,1.49-.37.48-.2.89-.49,1.23-.88.34-.39.52-.92.52-1.6,0-.4-.06-.76-.19-1.09-.12-.33-.32-.6-.59-.82Z"/>
    <path d="M29.1,29.5c.42.38.63.78.63,1.2,0,.24-.05.46-.14.66-.09.2-.22.36-.38.48s-.34.18-.55.19c-.21,0-.43-.06-.67-.22l-1.01-.84c-.14-.16-.23-.31-.28-.45s-.09-.33-.12-.57V13.55c.08-.4.22-.7.42-.91s.43-.31.7-.31.49.09.7.28c.2.19.35.47.46.85v15.86s.07.07.12.1c.05.03.09.06.12.08Z"/>
    <path d="M39.3,27.43c.25-.12.48-.17.69-.15.21.02.39.09.54.21s.27.27.35.46c.08.19.13.39.13.61s-.06.43-.16.64c-.11.21-.28.4-.52.58-.66.5-1.36.92-2.12,1.27-.76.35-1.52.52-2.28.52-.45,0-.91-.08-1.38-.25-.47-.17-.91-.43-1.31-.79-.66-.62-1.17-1.43-1.53-2.44-.37-1.01-.55-2.04-.55-3.1s.16-2.03.48-2.99c.32-.96.83-1.74,1.53-2.33.56-.5,1.17-.9,1.83-1.2.66-.3,1.33-.45,2.04-.45.38,0,.74.05,1.1.15.34.1.66.27.96.52.3.25.55.55.77.9s.39.73.52,1.15c.12.42.19.84.19,1.26,0,.28-.02.55-.07.81-.05.26-.13.51-.26.75-.23.48-.55.89-.96,1.24-.41.35-.85.65-1.33.91-.48.26-.98.48-1.5.66-.52.18-1,.34-1.45.48-.48.16-.79.26-.93.3s-.21.06-.25.06c.22.58.53,1.04.94,1.38s.91.48,1.5.42c.5-.04,1.02-.22,1.56-.55.54-.33,1.03-.67,1.49-1.03ZM34.99,21.42c-.52.34-.9.79-1.15,1.36-.25.57-.39,1.2-.42,1.9.05-.02.13-.05.25-.09s.29-.1.53-.19c.23-.09.57-.21,1.01-.37.16-.06.39-.14.7-.25.31-.11.63-.24.95-.39.32-.15.62-.32.89-.52.27-.2.46-.42.55-.66.03-.58-.07-.98-.3-1.2s-.52-.33-.84-.33c-.36,0-.74.08-1.15.25-.41.17-.74.33-1.01.49Z"/>
    <path d="M42.46,28.9c-.22-.58-.22-1.06-.01-1.45.21-.39.52-.58.92-.58.27,0,.55.13.87.39.33.56.72,1.03,1.17,1.41.45.38.93.51,1.43.39.23-.06.44-.17.62-.34s.31-.36.4-.58c.09-.22.13-.46.13-.72s-.05-.5-.16-.72c-.14-.28-.29-.5-.46-.66-.16-.16-.34-.28-.51-.36-.18-.08-.35-.14-.52-.18s-.32-.09-.46-.15c-.23-.08-.47-.16-.7-.25-.23-.09-.46-.2-.68-.34-.22-.14-.43-.31-.63-.52-.2-.21-.4-.47-.59-.79-.17-.3-.3-.62-.4-.97-.09-.35-.14-.67-.14-.97,0-.42.06-.85.19-1.29.12-.44.29-.84.5-1.21.21-.37.46-.69.75-.96.29-.27.6-.45.93-.55.66-.22,1.34-.25,2.05-.09.71.16,1.35.44,1.91.84.22.2.38.41.49.63.11.22.16.43.16.63,0,.24-.05.45-.15.64-.1.19-.23.34-.4.46s-.35.18-.56.18-.43-.08-.67-.24c-.19-.12-.45-.23-.79-.34-.34-.11-.67-.15-1-.12-.33.03-.6.16-.82.4-.22.24-.3.64-.26,1.2.09.22.21.4.34.55.13.15.28.27.44.37.16.1.34.18.53.25.19.07.37.13.54.19.48.18.93.38,1.33.61.41.23.76.51,1.05.85.3.34.53.75.69,1.23.16.48.25,1.06.25,1.73,0,.54-.09,1.06-.28,1.57-.19.51-.43.96-.74,1.36s-.65.72-1.04.96c-.39.24-.78.36-1.17.36-.87,0-1.72-.25-2.55-.75-.83-.5-1.49-1.19-1.99-2.06h-.02Z"/>
    <path d="M51.6,28.9c-.22-.58-.22-1.06-.01-1.45.21-.39.52-.58.92-.58.27,0,.55.13.87.39.33.56.72,1.03,1.17,1.41.45.38.93.51,1.43.39.23-.06.44-.17.62-.34s.31-.36.4-.58c.09-.22.13-.46.13-.72s-.05-.5-.16-.72c-.14-.28-.29-.5-.46-.66-.16-.16-.34-.28-.51-.36-.18-.08-.35-.14-.52-.18s-.32-.09-.46-.15c-.23-.08-.47-.16-.7-.25-.23-.09-.46-.2-.68-.34-.22-.14-.43-.31-.63-.52-.2-.21-.4-.47-.59-.79-.17-.3-.3-.62-.4-.97-.09-.35-.14-.67-.14-.97,0-.42.06-.85.19-1.29.12-.44.29-.84.5-1.21.21-.37.46-.69.75-.96.29-.27.6-.45.93-.55.66-.22,1.34-.25,2.05-.09.71.16,1.35.44,1.91.84.22.2.38.41.49.63.11.22.16.43.16.63,0,.24-.05.45-.15.64-.1.19-.23.34-.4.46s-.35.18-.56.18-.43-.08-.67-.24c-.19-.12-.45-.23-.79-.34-.34-.11-.67-.15-1-.12-.33.03-.6.16-.82.4-.22.24-.3.64-.26,1.2.09.22.21.4.34.55.13.15.28.27.44.37.16.1.34.18.53.25.19.07.37.13.54.19.48.18.93.38,1.33.61.41.23.76.51,1.05.85.3.34.53.75.69,1.23.16.48.25,1.06.25,1.73,0,.54-.09,1.06-.28,1.57-.19.51-.43.96-.74,1.36s-.65.72-1.04.96c-.39.24-.78.36-1.17.36-.87,0-1.72-.25-2.55-.75-.83-.5-1.49-1.19-1.99-2.06h-.02Z"/>
    <path d="M69.21,27.43c.25-.12.48-.17.69-.15.21.02.39.09.54.21s.27.27.35.46c.08.19.13.39.13.61s-.06.43-.16.64c-.11.21-.28.4-.52.58-.66.5-1.36.92-2.12,1.27-.76.35-1.52.52-2.28.52-.45,0-.91-.08-1.38-.25-.47-.17-.91-.43-1.31-.79-.66-.62-1.17-1.43-1.53-2.44-.37-1.01-.55-2.04-.55-3.1s.16-2.03.48-2.99c.32-.96.83-1.74,1.53-2.33.56-.5,1.17-.9,1.83-1.2.66-.3,1.33-.45,2.04-.45.38,0,.74.05,1.1.15.34.1.66.27.96.52.3.25.55.55.77.9s.39.73.52,1.15c.12.42.19.84.19,1.26,0,.28-.02.55-.07.81-.05.26-.13.51-.26.75-.23.48-.55.89-.96,1.24-.41.35-.85.65-1.33.91-.48.26-.98.48-1.5.66-.52.18-1,.34-1.45.48-.48.16-.79.26-.93.3s-.21.06-.25.06c.22.58.53,1.04.94,1.38s.91.48,1.5.42c.5-.04,1.02-.22,1.56-.55.54-.33,1.03-.67,1.49-1.03ZM64.9,21.42c-.52.34-.9.79-1.15,1.36-.25.57-.39,1.2-.42,1.9.05-.02.13-.05.25-.09s.29-.1.53-.19c.23-.09.57-.21,1.01-.37.16-.06.39-.14.7-.25.31-.11.63-.24.95-.39.32-.15.62-.32.89-.52.27-.2.46-.42.55-.66.03-.58-.07-.98-.3-1.2s-.52-.33-.84-.33c-.36,0-.74.08-1.15.25-.41.17-.74.33-1.01.49Z"/>
    <path d="M81.97,28.84c.11.2.18.38.22.54.04.16.06.31.06.45,0,.34-.1.63-.29.88-.2.25-.45.37-.76.37-.36,0-.68-.18-.96-.54l-.28-.36c-.45.48-.96.83-1.53,1.06-.57.23-1.17.34-1.79.34-.66,0-1.29-.17-1.9-.51-.61-.34-1.12-.86-1.52-1.56-.3-.56-.51-1.16-.66-1.79s-.21-1.28-.21-1.91c0-.7.05-1.39.16-2.08.11-.69.29-1.34.54-1.96.2-.5.48-.96.84-1.38s.74-.77,1.15-1.05c.36-.24.76-.45,1.22-.63.45-.18.89-.28,1.31-.3.34,0,.68,0,1.01.01.33.01.65.06.96.16,0-.56,0-1.06-.01-1.51s-.01-.88-.01-1.3c0-.62,0-1.14-.01-1.57,0-.43-.01-.74-.01-.94.08-.42.22-.73.43-.94.21-.21.45-.31.71-.31.25,0,.48.1.69.28.21.19.37.48.48.88v15.38l.14.24.02.03ZM79.56,27.1v-2.71c0-.51,0-1.01-.01-1.51,0-.5-.01-.94-.01-1.32l-.28-.3c-.2-.06-.41-.11-.61-.15-.2-.04-.4-.06-.59-.06-.36,0-.71.06-1.05.16-.34.11-.66.28-.96.52-.3.24-.55.54-.77.91-.22.37-.38.8-.49,1.3-.25,1.02-.29,1.9-.12,2.63s.48,1.29.91,1.65c.44.36.96.51,1.56.45.6-.06,1.21-.39,1.81-.99l.61-.6Z"/>
    <path d="M97.32,18.07c.66,0,1.24.18,1.75.54.51.36.94.83,1.29,1.42.35.59.62,1.26.8,2,.18.75.27,1.51.27,2.29,0,.34-.02.65-.05.94-.03.29-.07.58-.12.88-.17.82-.43,1.59-.76,2.3-.34.72-.73,1.34-1.18,1.87-.45.53-.96.94-1.51,1.24-.55.3-1.14.45-1.75.45-.64,0-1.22-.18-1.75-.54-.52-.36-.96-.82-1.32-1.39-.36-.57-.64-1.21-.83-1.91-.2-.71-.29-1.42-.29-2.14,0-1,.14-1.97.43-2.92s.68-1.79,1.17-2.54c.49-.75,1.07-1.35,1.73-1.81.66-.46,1.37-.69,2.12-.69ZM94.32,24.51c-.09.46-.14.97-.14,1.53s.06,1.09.19,1.58c.12.49.33.91.62,1.25s.68.51,1.16.51.89-.17,1.25-.53c.37-.35.68-.78.94-1.29.26-.51.46-1.06.6-1.65s.21-1.13.21-1.61c0-.44-.04-.88-.12-1.31-.08-.43-.2-.81-.36-1.16s-.36-.62-.6-.83c-.23-.21-.5-.32-.8-.32-.38,0-.73.12-1.05.38-.33.25-.62.56-.88.93-.26.37-.47.78-.64,1.23-.17.45-.3.88-.38,1.28Z"/>
    <path d="M103.69,20.86c-.3-.22-.5-.43-.62-.64-.12-.21-.18-.43-.18-.67,0-.34.11-.63.32-.87s.49-.36.83-.36c.23,0,.5.08.8.24.3.16.55.35.75.57.48-.5.97-.9,1.46-1.2.49-.3,1.01-.45,1.56-.45.16,0,.39.05.71.15.32.1.63.25.94.46.3.21.57.48.81.81s.35.71.35,1.15c0,.36-.11.65-.32.88-.21.23-.46.34-.76.34-.22,0-.4-.06-.54-.17s-.28-.25-.42-.41c-.11-.14-.24-.27-.39-.39-.15-.13-.29-.19-.41-.19-.17,0-.37.08-.61.24s-.47.35-.7.57c-.23.22-.46.46-.69.73-.23.27-.42.5-.57.7v7.84c-.02.5-.14.87-.38,1.11-.24.24-.49.36-.75.36-.28,0-.53-.12-.74-.34-.22-.23-.35-.57-.39-1.03v-9.38l-.05-.03Z"/>
    <path d="M129.17,30.12c-.02.5-.14.87-.39,1.11-.24.24-.5.36-.76.36-.28,0-.54-.11-.76-.33-.23-.22-.36-.56-.41-1.02v-.73c0-.27,0-.63-.01-1.08s-.01-1.03-.01-1.74v-2.77c0-.26,0-.59.02-.99s0-.79-.05-1.18c-.05-.39-.14-.72-.27-1-.13-.28-.34-.42-.62-.42-.47,0-.93.17-1.38.51-.45.34-.85.84-1.21,1.5-.13.24-.22.46-.29.67-.07.21-.12.51-.15.91v3.01c0,.99,0,1.99.02,3.01-.02.5-.14.87-.37,1.11-.23.24-.49.36-.77.36-.26,0-.51-.11-.73-.33-.22-.22-.36-.56-.41-1.02v-5.39c0-.88,0-1.76-.01-2.65s-.01-1.81-.01-2.77c.08-.44.22-.76.43-.96.21-.2.44-.3.71-.3.22,0,.43.08.65.25.22.17.36.42.44.76.45-.4.94-.72,1.46-.95s1.05-.35,1.6-.35c.6,0,1.16.18,1.7.54s.98.91,1.3,1.65c.16.36.26.74.31,1.14.05.4.07.81.07,1.23s-.02.83-.05,1.24c-.03.41-.05.79-.05,1.15v5.46Z"/>
    <path d="M140.79,29.71c.09.3.11.58.06.85-.06.27-.16.49-.33.66-.16.17-.37.27-.62.3s-.51-.04-.8-.22c-.12-.16-.25-.32-.36-.49s-.21-.33-.29-.49c-.56.54-1.09.88-1.58,1.03-.49.15-1.03.22-1.6.22-.42,0-.83-.06-1.23-.16-.4-.11-.8-.33-1.21-.67-.59-.54-1.01-1.18-1.26-1.92-.25-.74-.38-1.52-.38-2.33s.1-1.63.29-2.38c.2-.75.46-1.45.81-2.09.34-.65.74-1.24,1.18-1.78.44-.54.92-1.02,1.44-1.44.11-.08.26-.17.46-.27.2-.1.42-.19.67-.28s.51-.16.77-.21c.27-.05.52-.07.77-.07.48,0,.92.07,1.3.22.38.15.66.51.83,1.09v1.5c0,.4,0,.73-.01,1,0,.27-.01.49-.01.67v.51c0,.7.02,1.42.05,2.17s.09,1.48.16,2.2c.03.22.11.48.22.78s.24.57.36.81h-.02c.11.22.2.4.27.54.07.14.09.23.06.27ZM137.62,27.58c-.12-.7-.2-1.42-.23-2.17-.03-.75-.05-1.49-.05-2.23,0-.52,0-.99.02-1.41.02-.42.02-.83.02-1.23-.27.04-.54.13-.81.27-.27.14-.46.24-.57.3-.42.24-.8.58-1.14,1.02-.34.44-.61.93-.83,1.47s-.38,1.1-.48,1.69c-.1.59-.11,1.16-.04,1.72.05.44.17.8.36,1.09s.43.51.69.66c.27.15.55.22.85.22s.6-.06.88-.18c.34-.26.78-.67,1.31-1.23Z"/>
    <path d="M145.19,30.1c-.03.48-.16.84-.37,1.08-.22.24-.48.36-.77.36-.27,0-.51-.11-.75-.33s-.38-.55-.42-.99V13.79c.08-.4.22-.7.42-.91.2-.21.44-.31.7-.31s.5.09.71.28c.21.19.37.47.48.85v6.43c.76-.68,1.45-1.12,2.06-1.32.62-.2,1.25-.16,1.9.12.48.18.9.47,1.24.88.34.41.63.88.85,1.41.23.53.4,1.09.51,1.69.12.6.18,1.18.2,1.73v3.81c0,.41,0,.74.01,1,0,.26.01.51.01.75-.03.48-.15.84-.36,1.08-.21.24-.46.36-.75.36-.26,0-.51-.11-.74-.33-.23-.22-.37-.56-.42-1.02v-2.77c0-.91,0-1.84-.02-2.8-.03-.64-.14-1.26-.32-1.85-.18-.6-.47-1.07-.88-1.41-.31-.08-.61-.06-.88.06-.27.12-.54.31-.81.58s-.53.6-.8,1-.54.82-.82,1.26v5.71Z"/>
    <path d="M158.34,24.17c.34.12.59.3.75.55.16.25.23.5.23.76,0,.36-.13.68-.38.97-.26.29-.62.39-1.09.31-.65-.18-1.17-.55-1.54-1.12-.37-.57-.56-1.2-.56-1.9,0-.64.2-1.32.59-2.03.17-.28.39-.55.64-.82s.52-.54.79-.82c.22-.22.44-.44.66-.67.22-.23.41-.46.59-.7s.31-.48.42-.73c.11-.25.16-.5.16-.76,0-.14-.03-.31-.09-.51-.06-.2-.14-.39-.23-.57s-.2-.33-.32-.45-.23-.18-.34-.18c-.61.04-1.17.3-1.7.78-.52.48-.99,1.04-1.39,1.68-.14.22-.3.37-.47.45-.17.08-.34.12-.52.12-.31,0-.58-.12-.8-.36-.22-.24-.33-.54-.33-.9,0-.26.05-.49.16-.69.3-.48.64-.94,1.03-1.39.39-.45.8-.84,1.24-1.17.44-.33.89-.59,1.35-.79.46-.2.92-.3,1.37-.3.66,0,1.25.21,1.78.64.53.43.96,1.17,1.29,2.23.15.52.23.98.23,1.38,0,.76-.18,1.48-.54,2.17-.36.69-.79,1.3-1.31,1.84-.28.24-.55.49-.82.75s-.49.51-.68.76c-.19.25-.32.49-.41.73s-.09.46-.01.66c-.02.04.01.06.08.07.07.01.12.02.15.02ZM156.15,29.65c0-.5.14-.91.43-1.24.29-.33.64-.49,1.04-.49s.78.16,1.07.49.43.74.43,1.24-.14.89-.43,1.24c-.29.35-.64.52-1.07.52s-.75-.17-1.04-.52c-.29-.35-.43-.76-.43-1.24Z"/>
  </g>
</svg>